<svg xmlns="http://www.w3.org/2000/svg" xmlns:xlink="http://www.w3.org/1999/xlink" width="197" height="193" viewBox="0 0 197 193">
    <defs>
        <path id="a" d="M0 0h5.889v5.913H0z"/>
        <path id="c" d="M.42 0h6.17v5.913H.42z"/>
        <path id="e" d="M.28 0h6.17v5.913H.28z"/>
        <path id="g" d="M.14 0h6.17v5.913H.14z"/>
        <path id="i" d="M0 0h5.889v5.913H0z"/>
        <path id="k" d="M.42 0h6.17v5.913H.42z"/>
        <path id="m" d="M.28 0h6.17v5.913H.28z"/>
        <path id="o" d="M.14 0h6.17v5.913H.14z"/>
        <path id="q" d="M0 0h5.889v5.913H0z"/>
    </defs>
    <g fill="none" fill-rule="evenodd" opacity=".8">
        <path fill="#B9DFFF" d="M79.032 5.078a2.95 2.95 0 0 1-4.156.372 2.95 2.95 0 0 1-.355-4.157 2.95 2.95 0 0 1 4.155-.372 2.95 2.95 0 0 1 .356 4.157M93.854 17.516a2.95 2.95 0 0 1-4.156.372 2.95 2.95 0 0 1-.355-4.158 2.95 2.95 0 0 1 4.156-.372 2.95 2.95 0 0 1 .355 4.158M108.676 29.953a2.95 2.95 0 0 1-4.156.372 2.95 2.95 0 0 1-.355-4.157 2.95 2.95 0 0 1 4.156-.372 2.95 2.95 0 0 1 .355 4.157M123.499 42.39a2.95 2.95 0 0 1-4.156.373 2.95 2.95 0 0 1-.355-4.158 2.95 2.95 0 0 1 4.155-.372 2.95 2.95 0 0 1 .356 4.158M137.677 54.287a2.95 2.95 0 0 1-4.156.372 2.95 2.95 0 0 1-.356-4.157 2.95 2.95 0 0 1 4.156-.372 2.95 2.95 0 0 1 .356 4.157M151.855 66.184a2.95 2.95 0 0 1-4.156.372 2.95 2.95 0 0 1-.356-4.157 2.95 2.95 0 0 1 4.156-.373 2.95 2.95 0 0 1 .356 4.158M166.677 78.621a2.95 2.95 0 0 1-4.156.372 2.95 2.95 0 0 1-.355-4.157 2.95 2.95 0 0 1 4.156-.372 2.95 2.95 0 0 1 .355 4.157M181.5 91.059a2.95 2.95 0 0 1-4.157.372 2.95 2.95 0 0 1-.355-4.158 2.95 2.95 0 0 1 4.156-.372 2.95 2.95 0 0 1 .355 4.158M196.322 103.496a2.95 2.95 0 0 1-4.156.372 2.95 2.95 0 0 1-.356-4.157 2.95 2.95 0 0 1 4.156-.372 2.95 2.95 0 0 1 .356 4.157M68.715 17.373a2.95 2.95 0 0 1-4.155.372 2.95 2.95 0 0 1-.356-4.158 2.95 2.95 0 0 1 4.156-.372 2.95 2.95 0 0 1 .355 4.158M83.538 29.81a2.95 2.95 0 0 1-4.156.372 2.95 2.95 0 0 1-.355-4.157 2.95 2.95 0 0 1 4.156-.372 2.95 2.95 0 0 1 .355 4.157M98.36 42.247a2.95 2.95 0 0 1-4.156.373 2.95 2.95 0 0 1-.355-4.158 2.95 2.95 0 0 1 4.156-.372 2.95 2.95 0 0 1 .355 4.157M113.183 54.685a2.95 2.95 0 0 1-4.156.372 2.95 2.95 0 0 1-.356-4.157 2.95 2.95 0 0 1 4.156-.373 2.95 2.95 0 0 1 .356 4.158M127.36 66.582a2.95 2.95 0 0 1-4.155.372 2.95 2.95 0 0 1-.356-4.158 2.95 2.95 0 0 1 4.156-.372 2.95 2.95 0 0 1 .355 4.158M141.538 78.478a2.95 2.95 0 0 1-4.156.372 2.95 2.95 0 0 1-.355-4.157 2.95 2.95 0 0 1 4.156-.372 2.95 2.95 0 0 1 .355 4.157M156.36 90.916a2.95 2.95 0 0 1-4.155.372 2.95 2.95 0 0 1-.355-4.158 2.95 2.95 0 0 1 4.155-.372 2.95 2.95 0 0 1 .356 4.158M171.183 103.353a2.95 2.95 0 0 1-4.156.372 2.95 2.95 0 0 1-.355-4.157 2.95 2.95 0 0 1 4.156-.372 2.95 2.95 0 0 1 .355 4.157M186.005 115.79a2.95 2.95 0 0 1-4.156.373 2.95 2.95 0 0 1-.355-4.158 2.95 2.95 0 0 1 4.156-.372 2.95 2.95 0 0 1 .355 4.158M57.856 30.314a2.95 2.95 0 0 1-4.156.372 2.95 2.95 0 0 1-.355-4.157 2.95 2.95 0 0 1 4.156-.372 2.95 2.95 0 0 1 .355 4.157M72.679 42.751a2.95 2.95 0 0 1-4.156.373 2.95 2.95 0 0 1-.355-4.158 2.95 2.95 0 0 1 4.155-.372 2.95 2.95 0 0 1 .356 4.157M87.501 55.189a2.95 2.95 0 0 1-4.156.372 2.95 2.95 0 0 1-.355-4.157 2.95 2.95 0 0 1 4.156-.373 2.95 2.95 0 0 1 .355 4.158M102.323 67.626a2.95 2.95 0 0 1-4.156.372 2.95 2.95 0 0 1-.355-4.157 2.95 2.95 0 0 1 4.156-.372 2.95 2.95 0 0 1 .355 4.157M116.501 79.523a2.95 2.95 0 0 1-4.156.372 2.95 2.95 0 0 1-.355-4.157 2.95 2.95 0 0 1 4.156-.372 2.95 2.95 0 0 1 .355 4.157M130.68 91.42a2.95 2.95 0 0 1-4.157.372 2.95 2.95 0 0 1-.355-4.158 2.95 2.95 0 0 1 4.156-.372 2.95 2.95 0 0 1 .355 4.158M145.502 103.857a2.95 2.95 0 0 1-4.156.372 2.95 2.95 0 0 1-.356-4.157 2.95 2.95 0 0 1 4.156-.372 2.95 2.95 0 0 1 .356 4.157M160.324 116.294a2.95 2.95 0 0 1-4.156.373 2.95 2.95 0 0 1-.355-4.158 2.95 2.95 0 0 1 4.156-.372 2.95 2.95 0 0 1 .355 4.157M175.146 128.732a2.95 2.95 0 0 1-4.156.372 2.95 2.95 0 0 1-.355-4.157 2.95 2.95 0 0 1 4.156-.372 2.95 2.95 0 0 1 .355 4.157M46.997 43.255a2.95 2.95 0 0 1-4.156.373 2.95 2.95 0 0 1-.355-4.158 2.95 2.95 0 0 1 4.156-.372 2.95 2.95 0 0 1 .355 4.157M61.82 55.693a2.95 2.95 0 0 1-4.156.372 2.95 2.95 0 0 1-.356-4.157 2.95 2.95 0 0 1 4.156-.373 2.95 2.95 0 0 1 .356 4.158M76.642 68.13a2.95 2.95 0 0 1-4.156.372 2.95 2.95 0 0 1-.355-4.157 2.95 2.95 0 0 1 4.156-.372 2.95 2.95 0 0 1 .355 4.157M91.464 80.568a2.95 2.95 0 0 1-4.156.372 2.95 2.95 0 0 1-.355-4.158 2.95 2.95 0 0 1 4.156-.372 2.95 2.95 0 0 1 .355 4.158M105.642 92.464a2.95 2.95 0 0 1-4.156.372 2.95 2.95 0 0 1-.355-4.157 2.95 2.95 0 0 1 4.156-.372 2.95 2.95 0 0 1 .355 4.157M119.82 104.361a2.95 2.95 0 0 1-4.156.372 2.95 2.95 0 0 1-.355-4.157 2.95 2.95 0 0 1 4.156-.372 2.95 2.95 0 0 1 .355 4.157M134.642 116.798a2.95 2.95 0 0 1-4.155.373 2.95 2.95 0 0 1-.356-4.158 2.95 2.95 0 0 1 4.156-.372 2.95 2.95 0 0 1 .355 4.157M149.465 129.236a2.95 2.95 0 0 1-4.156.372 2.95 2.95 0 0 1-.355-4.157 2.95 2.95 0 0 1 4.156-.372 2.95 2.95 0 0 1 .355 4.157M164.287 141.673a2.95 2.95 0 0 1-4.156.372 2.95 2.95 0 0 1-.355-4.157 2.95 2.95 0 0 1 4.156-.372 2.95 2.95 0 0 1 .355 4.157M36.681 55.55a2.95 2.95 0 0 1-4.156.372 2.95 2.95 0 0 1-.355-4.158 2.95 2.95 0 0 1 4.156-.372 2.95 2.95 0 0 1 .355 4.158M51.503 67.987a2.95 2.95 0 0 1-4.156.372 2.95 2.95 0 0 1-.355-4.157 2.95 2.95 0 0 1 4.156-.372 2.95 2.95 0 0 1 .355 4.157M66.326 80.425a2.95 2.95 0 0 1-4.156.372 2.95 2.95 0 0 1-.355-4.158 2.95 2.95 0 0 1 4.156-.372 2.95 2.95 0 0 1 .355 4.158M81.148 92.862a2.95 2.95 0 0 1-4.156.372 2.95 2.95 0 0 1-.355-4.157 2.95 2.95 0 0 1 4.156-.372 2.95 2.95 0 0 1 .355 4.157M95.326 104.759a2.95 2.95 0 0 1-4.156.372 2.95 2.95 0 0 1-.355-4.158 2.95 2.95 0 0 1 4.156-.372 2.95 2.95 0 0 1 .355 4.158M109.504 116.655a2.95 2.95 0 0 1-4.156.372 2.95 2.95 0 0 1-.355-4.157 2.95 2.95 0 0 1 4.156-.372 2.95 2.95 0 0 1 .355 4.157M124.326 129.093a2.95 2.95 0 0 1-4.156.372 2.95 2.95 0 0 1-.355-4.157 2.95 2.95 0 0 1 4.156-.373 2.95 2.95 0 0 1 .355 4.158M139.149 141.53a2.95 2.95 0 0 1-4.156.372 2.95 2.95 0 0 1-.356-4.157 2.95 2.95 0 0 1 4.156-.372 2.95 2.95 0 0 1 .356 4.157M153.971 153.968a2.95 2.95 0 0 1-4.156.372 2.95 2.95 0 0 1-.355-4.158 2.95 2.95 0 0 1 4.156-.372 2.95 2.95 0 0 1 .355 4.158M26.365 67.844a2.95 2.95 0 0 1-4.156.372 2.95 2.95 0 0 1-.355-4.157 2.95 2.95 0 0 1 4.156-.372 2.95 2.95 0 0 1 .355 4.157M41.187 80.282a2.95 2.95 0 0 1-4.156.372 2.95 2.95 0 0 1-.355-4.158 2.95 2.95 0 0 1 4.156-.372 2.95 2.95 0 0 1 .355 4.158M56.01 92.719a2.95 2.95 0 0 1-4.156.372 2.95 2.95 0 0 1-.356-4.157 2.95 2.95 0 0 1 4.156-.372 2.95 2.95 0 0 1 .356 4.157M70.832 105.156a2.95 2.95 0 0 1-4.156.372 2.95 2.95 0 0 1-.355-4.157 2.95 2.95 0 0 1 4.156-.372 2.95 2.95 0 0 1 .355 4.157M85.01 117.053a2.95 2.95 0 0 1-4.156.372 2.95 2.95 0 0 1-.355-4.157 2.95 2.95 0 0 1 4.156-.372 2.95 2.95 0 0 1 .355 4.157M99.188 128.95a2.95 2.95 0 0 1-4.156.372 2.95 2.95 0 0 1-.355-4.158 2.95 2.95 0 0 1 4.156-.372 2.95 2.95 0 0 1 .355 4.158M114.01 141.387a2.95 2.95 0 0 1-4.156.372 2.95 2.95 0 0 1-.355-4.157 2.95 2.95 0 0 1 4.156-.372 2.95 2.95 0 0 1 .355 4.157M128.832 153.825a2.95 2.95 0 0 1-4.155.372 2.95 2.95 0 0 1-.356-4.158 2.95 2.95 0 0 1 4.156-.372 2.95 2.95 0 0 1 .355 4.158M143.655 166.262a2.95 2.95 0 0 1-4.156.372 2.95 2.95 0 0 1-.355-4.157 2.95 2.95 0 0 1 4.156-.372 2.95 2.95 0 0 1 .355 4.157M15.506 80.785a2.95 2.95 0 0 1-4.156.373A2.95 2.95 0 0 1 10.995 77a2.95 2.95 0 0 1 4.156-.372 2.95 2.95 0 0 1 .355 4.157M30.328 93.223a2.95 2.95 0 0 1-4.156.372 2.95 2.95 0 0 1-.355-4.157 2.95 2.95 0 0 1 4.156-.372 2.95 2.95 0 0 1 .355 4.157M45.15 105.66a2.95 2.95 0 0 1-4.155.372 2.95 2.95 0 0 1-.356-4.157 2.95 2.95 0 0 1 4.156-.372 2.95 2.95 0 0 1 .355 4.157M59.973 118.098a2.95 2.95 0 0 1-4.156.372 2.95 2.95 0 0 1-.355-4.158 2.95 2.95 0 0 1 4.156-.372 2.95 2.95 0 0 1 .355 4.158M74.15 129.994a2.95 2.95 0 0 1-4.155.373 2.95 2.95 0 0 1-.355-4.158 2.95 2.95 0 0 1 4.155-.372 2.95 2.95 0 0 1 .356 4.157M88.329 141.891a2.95 2.95 0 0 1-4.156.372 2.95 2.95 0 0 1-.356-4.157 2.95 2.95 0 0 1 4.156-.372 2.95 2.95 0 0 1 .356 4.157M103.151 154.329a2.95 2.95 0 0 1-4.156.372 2.95 2.95 0 0 1-.355-4.158 2.95 2.95 0 0 1 4.156-.372 2.95 2.95 0 0 1 .355 4.158M117.973 166.766a2.95 2.95 0 0 1-4.156.372 2.95 2.95 0 0 1-.355-4.157 2.95 2.95 0 0 1 4.156-.372 2.95 2.95 0 0 1 .355 4.157M132.796 179.203a2.95 2.95 0 0 1-4.156.372 2.95 2.95 0 0 1-.355-4.157 2.95 2.95 0 0 1 4.155-.372 2.95 2.95 0 0 1 .356 4.157"/>
        <g transform="rotate(40 -118.267 47.057)">
            <mask id="b" fill="#fff">
                <use xlink:href="#a"/>
            </mask>
            <path fill="#B9DFFF" d="M5.889 2.956a2.95 2.95 0 0 1-2.945 2.957A2.95 2.95 0 0 1 0 2.956 2.95 2.95 0 0 1 2.944 0 2.95 2.95 0 0 1 5.89 2.956" mask="url(#b)"/>
        </g>
        <g transform="rotate(40 -127.52 72.483)">
            <mask id="d" fill="#fff">
                <use xlink:href="#c"/>
            </mask>
            <path fill="#B9DFFF" d="M6.59 2.956c0 1.633-1.381 2.957-3.085 2.957-1.703 0-3.084-1.324-3.084-2.957C.42 1.323 1.802 0 3.505 0 5.21 0 6.59 1.323 6.59 2.956" mask="url(#d)"/>
        </g>
        <g transform="rotate(40 -137.195 99.063)">
            <mask id="f" fill="#fff">
                <use xlink:href="#e"/>
            </mask>
            <path fill="#B9DFFF" d="M6.45 2.956c0 1.633-1.382 2.957-3.085 2.957S.28 4.589.28 2.956C.28 1.323 1.662 0 3.365 0S6.45 1.323 6.45 2.956" mask="url(#f)"/>
        </g>
        <g transform="rotate(40 -146.87 125.644)">
            <mask id="h" fill="#fff">
                <use xlink:href="#g"/>
            </mask>
            <path fill="#B9DFFF" d="M6.31 2.956c0 1.633-1.382 2.957-3.085 2.957S.14 4.589.14 2.956C.14 1.323 1.522 0 3.225 0S6.31 1.323 6.31 2.956" mask="url(#h)"/>
        </g>
        <g transform="rotate(40 -156.545 152.225)">
            <mask id="j" fill="#fff">
                <use xlink:href="#i"/>
            </mask>
            <path fill="#B9DFFF" d="M5.889 2.956a2.95 2.95 0 0 1-2.945 2.957A2.95 2.95 0 0 1 0 2.956 2.95 2.95 0 0 1 2.944 0 2.95 2.95 0 0 1 5.89 2.956" mask="url(#j)"/>
        </g>
        <g transform="rotate(40 -165.799 177.65)">
            <mask id="l" fill="#fff">
                <use xlink:href="#k"/>
            </mask>
            <path fill="#B9DFFF" d="M6.59 2.956c0 1.633-1.381 2.957-3.085 2.957-1.703 0-3.084-1.324-3.084-2.957C.42 1.323 1.802 0 3.505 0 5.21 0 6.59 1.323 6.59 2.956" mask="url(#l)"/>
        </g>
        <g transform="rotate(40 -175.473 204.23)">
            <mask id="n" fill="#fff">
                <use xlink:href="#m"/>
            </mask>
            <path fill="#B9DFFF" d="M6.45 2.956c0 1.633-1.382 2.957-3.085 2.957S.28 4.589.28 2.956C.28 1.323 1.662 0 3.365 0S6.45 1.323 6.45 2.956" mask="url(#n)"/>
        </g>
        <g transform="rotate(40 -185.148 230.811)">
            <mask id="p" fill="#fff">
                <use xlink:href="#o"/>
            </mask>
            <path fill="#B9DFFF" d="M6.31 2.956c0 1.633-1.382 2.957-3.085 2.957S.14 4.589.14 2.956C.14 1.323 1.522 0 3.225 0S6.31 1.323 6.31 2.956" mask="url(#p)"/>
        </g>
        <g transform="rotate(40 -194.822 257.392)">
            <mask id="r" fill="#fff">
                <use xlink:href="#q"/>
            </mask>
            <path fill="#B9DFFF" d="M5.889 2.956a2.95 2.95 0 0 1-2.945 2.957A2.95 2.95 0 0 1 0 2.956 2.95 2.95 0 0 1 2.944 0 2.95 2.95 0 0 1 5.89 2.956" mask="url(#r)"/>
        </g>
    </g>
</svg>
