<svg xmlns="http://www.w3.org/2000/svg" xmlns:xlink="http://www.w3.org/1999/xlink" width="21" height="17" viewBox="0 0 21 17">
    <defs>
        <path id="a" d="M0 0h20.992v16.933H0z"/>
    </defs>
    <g fill="none" fill-rule="evenodd">
        <mask id="b" fill="#fff">
            <use xlink:href="#a"/>
        </mask>
        <path fill="#FFF" d="M6.594 16.933c7.921 0 12.256-6.516 12.256-12.158 0-.183 0-.367-.009-.55.84-.6 1.571-1.358 2.15-2.217a8.784 8.784 0 0 1-2.477.675A4.305 4.305 0 0 0 20.412.317a8.612 8.612 0 0 1-2.738 1.033A4.315 4.315 0 0 0 14.532 0c-2.377 0-4.31 1.917-4.31 4.275 0 .333.043.658.11.975A12.264 12.264 0 0 1 1.453.783a4.248 4.248 0 0 0-.58 2.15c0 1.484.765 2.792 1.916 3.559A4.382 4.382 0 0 1 .84 5.958v.059c0 2.066 1.487 3.8 3.452 4.191-.36.1-.739.15-1.134.15a4.26 4.26 0 0 1-.806-.075 4.303 4.303 0 0 0 4.024 2.967 8.683 8.683 0 0 1-5.351 1.833c-.345 0-.689-.016-1.025-.058a12.325 12.325 0 0 0 6.594 1.908" mask="url(#b)"/>
    </g>
</svg>
