<svg xmlns="http://www.w3.org/2000/svg" xmlns:xlink="http://www.w3.org/1999/xlink" width="140" height="15" viewBox="0 0 140 15">
    <defs>
        <path id="a" d="M0 0h139v14.05H0z"/>
    </defs>
    <g fill="none" fill-rule="evenodd" opacity=".4" transform="translate(.4)">
        <mask id="b" fill="#fff">
            <use xlink:href="#a"/>
        </mask>
        <path fill="#7F7F7F" d="M132.942 13.84H139v-2.347h-3.096V.191h-2.962v13.65zM126.76 2.808l.807 6.204h-1.615l.808-6.204zm1.462 11.034h3L129.029.19h-4.25l-2.173 13.65h2.712l.365-2.787h2.154l.385 2.787zm-15.432 0h2.557V5.365l2.731 8.476h2.808V.19h-2.577v7.293L115.982.19h-3.192v13.65zm-6.932-7.58V2.444h.692c.827 0 1.173.325 1.173 1.241v1.26c0 .974-.365 1.318-1.173 1.318h-.692zm-2.962 7.58h2.962V8.15h.538l1.52 5.69h3.077l-1.809-6.147c.904-.44 1.424-1.165 1.424-2.711V3.589c0-2.272-1.077-3.398-3.962-3.398h-3.75v13.65zM97.676.19v9.927c0 1.145-.308 1.546-1.04 1.546-.787 0-1.057-.4-1.057-1.527V.19h-2.961v10.004c0 2.653 1.442 3.856 4 3.856 2.539 0 4.038-1.184 4.038-3.837V.191h-2.98zM86.261 11.684c-.807 0-1.173-.496-1.173-1.738v-5.86c0-1.222.386-1.719 1.173-1.719.808 0 1.193.535 1.193 1.719v5.841c0 1.241-.385 1.757-1.193 1.757zm0 2.367c2.558 0 4.212-1.317 4.212-4.162V4.086C90.474 1.222 88.763 0 86.262 0 83.84 0 82.07 1.298 82.07 4.104v5.862c0 2.806 1.635 4.085 4.192 4.085zm-9.74-.096c2.27 0 3.463-1.26 3.463-3.607V.19h-2.981v10.023c0 .954-.423 1.279-1.174 1.279-.403 0-.673-.058-.904-.115v2.291c.347.153.808.286 1.597.286zm-10.113.096c2.442 0 3.807-1.241 3.807-3.723v-.267c0-2.673-1.403-3.493-3.038-4.525-1.192-.801-1.615-1.145-1.615-2.119v-.076c0-.764.27-1.07.827-1.07.52 0 .884.249.884 1.222v.44h2.789v-.401C70.043 1.126 68.717 0 66.39 0c-2.365 0-3.712 1.26-3.712 3.532v.076c0 2.253.942 3.265 2.731 4.391 1.23.802 1.904 1.184 1.904 2.406v.152c0 .878-.289 1.26-.904 1.26-.712 0-1-.362-1-1.47v-.534h-2.866v.439c.02 2.73 1.52 3.799 3.866 3.799zm-9.336 0c2.443 0 3.808-1.241 3.808-3.723v-.267c0-2.673-1.404-3.493-3.039-4.525-1.192-.801-1.615-1.145-1.615-2.119v-.076c0-.764.269-1.07.827-1.07.519 0 .885.249.885 1.222v.44h2.788v-.401C60.707 1.126 59.38 0 57.054 0c-2.366 0-3.712 1.26-3.712 3.532v.076c0 2.253.942 3.265 2.731 4.391 1.231.802 1.904 1.184 1.904 2.406v.152c0 .878-.288 1.26-.904 1.26-.711 0-1-.362-1-1.47v-.534h-2.866v.439c.02 2.73 1.52 3.799 3.866 3.799zm-11.951-.21h6.423v-2.31h-3.462V7.75h2.577V5.555h-2.577V2.501h3.27V.191h-6.231v13.65zm-10.375 0h2.558V5.365l2.731 8.476h2.808V.19h-2.577v7.293L37.94.19h-3.193v13.65zm-5.316 0h2.98V.19h-2.98v13.65zm-5.894.21c2.442 0 3.808-1.241 3.808-3.723v-.267c0-2.673-1.404-3.493-3.038-4.525-1.193-.801-1.616-1.145-1.616-2.119v-.076c0-.764.27-1.07.827-1.07.52 0 .885.249.885 1.222v.44h2.788v-.401C27.172 1.126 25.845 0 23.518 0c-2.365 0-3.712 1.26-3.712 3.532v.076c0 2.253.943 3.265 2.731 4.391 1.23.802 1.904 1.184 1.904 2.406v.152c0 .878-.288 1.26-.904 1.26-.711 0-1-.362-1-1.47v-.534h-2.865v.439c.02 2.73 1.519 3.799 3.865 3.799zm-8.7-13.86v9.927c0 1.145-.309 1.546-1.04 1.546-.788 0-1.057-.4-1.057-1.527V.19H9.778v10.004c0 2.653 1.443 3.856 4 3.856 2.539 0 4.039-1.184 4.039-3.837V.191h-2.98zM2.903 5.708V2.272h.615c.77 0 1.174.21 1.174 1.24v.86c0 1.011-.327 1.336-1.174 1.336h-.615zm0 6.052V7.675h.635c.942 0 1.326.286 1.326 1.527v.973c0 1.146-.384 1.585-1.269 1.585h-.692zM0 13.84h3.866c2.576 0 3.942-.916 3.942-3.435v-.878c0-1.738-.904-2.578-2.366-2.865 1.25-.286 2.059-1.03 2.059-2.462v-.955C7.5 1.165 6.289.191 3.789.191h-3.79v13.65z" mask="url(#b)"/>
    </g>
</svg>
