<svg xmlns="http://www.w3.org/2000/svg" xmlns:xlink="http://www.w3.org/1999/xlink" width="25" height="19" viewBox="0 0 25 19">
    <defs>
        <path id="a" d="M0 .022h4.552v18.795H0z"/>
        <path id="c" d="M.1.137h.785v.776H.099z"/>
    </defs>
    <g fill="none" fill-rule="evenodd">
        <g transform="translate(0 .161)">
            <mask id="b" fill="#fff">
                <use xlink:href="#a"/>
            </mask>
            <path fill="#FEFEFE" d="M2.277.022a2.27 2.27 0 0 1 2.275 2.261 2.27 2.27 0 0 1-2.275 2.263A2.27 2.27 0 0 1 0 2.283 2.27 2.27 0 0 1 2.277.022zM.313 18.817h3.926V6.262H.313v12.555z" mask="url(#b)"/>
        </g>
        <path fill="#FEFEFE" d="M6.702 6.423h3.765V8.14h.053c.524-.987 1.805-2.028 3.715-2.028 3.976 0 4.71 2.6 4.71 5.98v6.887H15.02v-6.105c0-1.456-.027-3.329-2.04-3.329-2.043 0-2.356 1.586-2.356 3.223v6.211H6.702V6.423zM23.504 18.317h.214v.661h.116v-.66h.213v-.116h-.543z"/>
        <g transform="translate(24.08 18.065)">
            <mask id="d" fill="#fff">
                <use xlink:href="#c"/>
            </mask>
            <path fill="#FEFEFE" d="M.72.137l-.228.57-.228-.57H.1v.776h.116v-.59l.239.59H.53L.77.323v.59h.115V.137z" mask="url(#d)"/>
        </g>
    </g>
</svg>
