<svg xmlns="http://www.w3.org/2000/svg" width="138" height="33" viewBox="0 0 138 33">
    <g fill="none" fill-rule="evenodd">
        <g>
            <path fill="#F4F4F4" d="M16.502 32.846C7.402 32.846 0 25.553 0 16.59 0 7.63 7.402.337 16.498.334h.004c3.623 0 7.224 1.23 10.133 3.465 4.57 3.508 6.904 9.243 6.092 14.964-.139.976-1.053 1.654-2.043 1.518a1.786 1.786 0 0 1-1.54-2.013c.633-4.465-1.184-8.931-4.734-11.657-2.279-1.75-5.09-2.712-7.912-2.712h-.004c-7.103 0-12.878 5.693-12.878 12.69 0 6.999 5.778 12.691 12.882 12.691 1.001 0 1.81.8 1.81 1.783.003.983-.809 1.783-1.806 1.783z" opacity=".4"/>
            <path fill="#F4F4F4" d="M16.502 32.846c-8.12 0-15.137-5.958-16.324-13.857a1.786 1.786 0 0 1 1.526-2.023c.99-.143 1.908.528 2.054 1.503.925 6.166 6.404 10.815 12.744 10.815 1.001 0 1.81.8 1.81 1.783 0 .979-.813 1.779-1.81 1.779z" opacity=".7"/>
            <path fill="#F4F4F4" d="M30.939 20.302a1.48 1.48 0 0 1-.251-.018 1.786 1.786 0 0 1-1.54-2.012 12.468 12.468 0 0 0-2.163-8.989 1.766 1.766 0 0 1 .448-2.482 1.827 1.827 0 0 1 2.52.441 15.978 15.978 0 0 1 2.777 11.521 1.804 1.804 0 0 1-1.791 1.54z" opacity=".3"/>
            <path fill="#F4F4F4" d="M16.385 32.842c-.987 0-1.788-.789-1.788-1.761 0-.972.801-1.761 1.788-1.761 1.726 0 3.128-1.385 3.128-3.081 0-1.6-1.216-2.92-2.83-3.067a1.713 1.713 0 0 1-.236-.04l-1.507-.344c-.04-.01-.08-.018-.117-.032-2.836-.854-4.744-3.394-4.744-6.317 0-3.644 3.007-6.607 6.707-6.607 2.672 0 5.09 1.56 6.153 3.978a1.75 1.75 0 0 1-.928 2.317 1.798 1.798 0 0 1-2.352-.915 3.132 3.132 0 0 0-2.873-1.858c-1.726 0-3.128 1.385-3.128 3.085 0 1.349.867 2.518 2.16 2.93l1.328.305c3.394.38 5.939 3.178 5.939 6.565.007 3.64-3.004 6.603-6.7 6.603z"/>
            <ellipse cx="30.939" cy="18.516" fill="#F4F4F4" opacity=".3" rx="1.813" ry="1.786"/>
            <ellipse cx="29.086" cy="23.756" fill="#FFF" rx="1.821" ry="1.793"/>
        </g>
        <g fill="#F4F4F4">
            <path d="M49.134 25.722c2.261 0 3.626-.588 3.626-2.622 0-1.869-1.165-2.195-3.79-2.948-2.895-.786-5.59-1.672-5.59-5.438 0-3.178 2.528-4.588 5.623-4.588 1.897 0 3.66.262 5.221 1.116l-.83 1.9c-1.165-.624-2.629-.918-4.191-.918-1.963 0-3.426.395-3.426 2.622 0 1.837 1.696 2.393 3.86 2.981 2.628.721 5.52 1.442 5.52 5.015 0 3.605-2.262 4.982-5.888 4.982-2.462 0-4.625-.395-6.387-1.474l.797-1.934c1.562.883 3.46 1.306 5.455 1.306zM59.912 19.334v-6.751h-2.928v-2.062h2.928V5.377l2.461-.327v5.474H66.2l-.233 2.063h-3.594v7.439c0 2.884.033 4.523 2.163 6.521l-1.664 1.377c-2.76-2.17-2.96-4.889-2.96-8.59zM68.96 27.426V16.647c0-2.03-.131-4.064-.597-5.865l2.06-.459c.332.886.598 1.901.798 2.916.932-1.868 2.494-2.916 5.156-3.113l.331 2.622c-2.727.032-4.325 1.18-5.287 3.605v11.076H68.96v-.003z"/>
            <path fill-rule="nonzero" d="M86.255 27.82c-4.522 0-7.482-1.836-7.482-8.849 0-7.339 3.426-8.845 7.151-8.845 4.326 0 6.82 2.03 6.82 9.24v.294l-11.444.918c.098 3.964 1.897 5.176 4.955 5.176 1.763 0 3.292-.394 4.858-1.309l.9 1.869c-1.73 1.112-3.693 1.506-5.758 1.506zm4.06-9.993c-.065-4.261-1.696-5.635-4.39-5.635-2.896 0-4.69 1.571-4.69 6.127v.358l9.08-.85zM103.456 27.82c-4.522 0-7.482-1.836-7.482-8.849 0-7.339 3.426-8.845 7.151-8.845 4.326 0 6.82 2.03 6.82 9.24v.294l-11.444.918c.098 3.964 1.897 5.176 4.955 5.176 1.763 0 3.292-.394 4.858-1.309l.899 1.869c-1.733 1.112-3.696 1.506-5.757 1.506zm4.057-9.993c-.066-4.261-1.697-5.635-4.392-5.635-2.894 0-4.69 1.571-4.69 6.127v.358l9.082-.85z"/>
            <path d="M135.357 27.426v-9.24c0-3.702-.2-6.03-3.66-6.03-2.396 0-3.594 1.245-4.657 3.408v11.862h-2.461V16.382c0-2.36-.597-4.226-3.66-4.226-2.396 0-3.594 1.245-4.657 3.408v11.862h-2.461V16.647c0-2.03-.131-4.064-.597-5.865l2.06-.459c.3.818.532 1.672.7 2.522.997-1.768 2.694-2.719 5.454-2.719 2.727 0 4.158 1.148 4.923 2.916 1.23-1.998 3.026-2.916 5.855-2.916 4.825 0 5.622 3.637 5.622 7.6v9.7h-2.461z"/>
        </g>
    </g>
</svg>
