<svg xmlns="http://www.w3.org/2000/svg" xmlns:xlink="http://www.w3.org/1999/xlink" width="81" height="27" viewBox="0 0 81 27">
    <defs>
        <path id="a" d="M0 .05h19.893v20.217H0z"/>
    </defs>
    <g fill="none" fill-rule="evenodd">
        <g opacity=".4">
            <mask id="b" fill="#fff">
                <use xlink:href="#a"/>
            </mask>
            <path fill="#7F7F7F" d="M19.724 9.252H10.28v2.752h6.72c-.328 3.859-3.568 5.505-6.627 5.505-3.914 0-7.33-3.051-7.33-7.327 0-4.165 3.256-7.373 7.338-7.373 3.15 0 5.005 1.99 5.005 1.99l1.945-1.996S14.836.05 10.282.05C4.486.05 0 4.897 0 10.133c0 5.13 4.22 10.134 10.43 10.134 5.464 0 9.463-3.708 9.463-9.19 0-1.157-.17-1.826-.17-1.826v.001z" mask="url(#b)"/>
        </g>
        <path fill="#7F7F7F" fill-opacity=".4" d="M27.85 9.756c1.907 0 3.714 1.53 3.714 3.998 0 2.414-1.799 3.989-3.722 3.989-2.113 0-3.78-1.68-3.78-4.008 0-2.278 1.646-3.98 3.789-3.98m-.039-2.582c-3.877 0-6.655 3.01-6.655 6.522 0 3.563 2.695 6.629 6.7 6.629 3.627 0 6.598-2.753 6.598-6.553 0-4.355-3.456-6.598-6.643-6.598M42.358 9.756c1.907 0 3.713 1.53 3.713 3.998 0 2.414-1.799 3.989-3.722 3.989-2.112 0-3.78-1.68-3.78-4.008 0-2.278 1.647-3.98 3.79-3.98zm-.038-2.583c-3.877 0-6.656 3.01-6.656 6.522 0 3.563 2.695 6.629 6.701 6.629 3.627 0 6.598-2.753 6.598-6.553 0-4.355-3.456-6.598-6.643-6.598zM56.781 9.76c1.744 0 3.535 1.484 3.535 4.019 0 2.576-1.787 3.996-3.573 3.996-1.896 0-3.66-1.535-3.66-3.972 0-2.533 1.832-4.044 3.698-4.044zm-.257-2.587c-3.557 0-6.352 3.106-6.352 6.592 0 3.97 3.24 6.603 6.29 6.603 1.886 0 2.89-.746 3.63-1.603v1.301c0 2.276-1.387 3.64-3.479 3.64-2.02 0-3.035-1.5-3.387-2.35l-2.543 1.06c.902 1.902 2.718 3.885 5.951 3.885 3.537 0 6.232-2.22 6.232-6.877V7.407h-2.774v1.28c-.853-.916-2.02-1.514-3.568-1.514zM75.174 9.7c1.205 0 2.072.637 2.44 1.402l-5.903 2.459c-.255-1.903 1.555-3.862 3.463-3.862zm-.115-2.527c-3.342 0-6.149 2.65-6.149 6.56 0 4.137 3.129 6.59 6.47 6.59 2.79 0 4.501-1.52 5.523-2.882l-2.28-1.51c-.59.914-1.579 1.808-3.229 1.808-1.853 0-2.705-1.012-3.233-1.991L81 12.093l-.459-1.07c-.854-2.098-2.846-3.85-5.481-3.85zM64.68 19.726h2.417V.598h-2.418z"/>
    </g>
</svg>
