<svg xmlns="http://www.w3.org/2000/svg" width="88" height="19" viewBox="0 0 88 19">
    <g fill="#7F7F7F" fill-opacity=".4" fill-rule="evenodd">
        <path d="M30.924 5.203V3.154h-8.52v2.05h2.966v8.088h-2.966v2.049h8.52v-2.05H27.69V5.204zM45.079 5.284h-3.397v3.344s1.833-.054 3.343-.054 1.887-.324 1.887-1.834c0-1.725-1.833-1.456-1.833-1.456"/>
        <path d="M49.338 12.402v2.804h-2.426v-2.642s0-2.05-1.402-2.05-3.828.055-3.828.055v4.69h-2.373V3.182h7.01s3.02-.161 3.02 3.128c0 3.29-1.834 3.45-1.834 3.45s1.833.108 1.833 2.643zm-14.073 5.877h17.632V.324H35.265v17.955zM56.132 3.181v1.995h1.672v8.143h-1.672v1.995h10.3v-3.936h-2.05v1.94h-4.367V10.03h3.235V8.034h-3.235V5.176h4.206v1.942h2.21V3.18zM80.72 15.422c-4.42 0-6.416.053-6.416.053V3.235h5.23s5.392-.593 5.392 4.26v3.397s.216 4.53-4.205 4.53zm-10.352 2.857H88V.324H70.368v17.955z"/>
        <path d="M80.451 5.23h-3.667v8.089h3.829c1.833 0 1.887-2.373 1.887-2.373V7.819c0-2.75-2.049-2.588-2.049-2.588M14.02 15.314H11L9.06 6.524l-2.103 8.844H3.99L1.51 3.235h2.426l1.672 9.22 2.157-9.22 2.642.054 2.157 9.329 1.618-9.383H16.5l-2.48 12.079zM0 18.279h17.632V.324H0v17.955z"/>
    </g>
</svg>
