<svg xmlns="http://www.w3.org/2000/svg" xmlns:xlink="http://www.w3.org/1999/xlink" width="84" height="97" viewBox="0 0 84 97">
    <defs>
        <path id="a" d="M37 .1C16.598.1 0 16.698 0 37.1c0 11.803 5.477 23.527 14.594 31.308.191.192.296.326.306.391V87.8c0 3.526 2.565 6.342 6.112 6.696L49.6 97h.5c1.7 0 3.324-.625 4.576-1.763 1.434-1.315 2.224-3.068 2.224-4.938V79.2h7.8c5.183 0 9.4-4.217 9.4-9.4V59.1h2.099c2.791 0 5.315-1.508 6.587-3.936a7.55 7.55 0 0 0-.348-7.609l-8.37-12.754c-.162-.327-.268-.559-.272-.986C72.151 14.594 56.333.1 37 .1zM21.199 92.505c-2.491-.249-4.299-2.228-4.299-4.705V68.799c0-.915-.626-1.539-.951-1.859C7.214 59.481 2 48.325 2 37.1c0-19.299 15.701-35 35-35 18.285 0 33.248 13.707 34.8 31.8 0 .835.279 1.395.505 1.847l8.457 12.9c1.103 1.697 1.196 3.786.252 5.589-.926 1.766-2.771 2.864-4.815 2.864H72.1v12.7c0 4.081-3.319 7.4-7.4 7.4h-9.8v13.099c0 1.302-.56 2.532-1.573 3.461A4.787 4.787 0 0 1 50.1 95l-.413.004-28.488-2.499z"/>
        <linearGradient id="b" x1="0%" y1="50%" y2="50%">
            <stop offset="0%" stop-color="#23E4E4"/>
            <stop offset="100%" stop-color="#004DFF"/>
        </linearGradient>
        <path id="d" d="M10.039.4v7.336H.309v2H12.04V2.4h6.051v-2z"/>
        <linearGradient id="e" x1="0%" x2="99.996%" y1="49.996%" y2="49.996%">
            <stop offset="0%" stop-color="#23E4E4"/>
            <stop offset="100%" stop-color="#004DFF"/>
        </linearGradient>
        <path id="g" d="M.142 6.4a5.955 5.955 0 0 0 5.949 5.949A5.956 5.956 0 0 0 12.04 6.4 5.955 5.955 0 0 0 6.091.451 5.955 5.955 0 0 0 .142 6.4m2 0a3.953 3.953 0 0 1 3.949-3.949A3.953 3.953 0 0 1 10.039 6.4a3.953 3.953 0 0 1-3.948 3.949A3.953 3.953 0 0 1 2.142 6.4"/>
        <linearGradient id="h" x1="-.003%" x2="99.996%" y1="50.001%" y2="50.001%">
            <stop offset="0%" stop-color="#23E4E4"/>
            <stop offset="100%" stop-color="#004DFF"/>
        </linearGradient>
        <path id="j" d="M24.181 5.736H.309v2h23.989c.609 2.638 2.972 4.613 5.793 4.613a5.956 5.956 0 0 0 5.949-5.95A5.955 5.955 0 0 0 30.091.451c-3.056 0-5.577 2.316-5.91 5.285m1.962.663a3.952 3.952 0 0 1 3.948-3.948 3.952 3.952 0 0 1 3.948 3.948 3.953 3.953 0 0 1-3.948 3.949 3.953 3.953 0 0 1-3.948-3.949"/>
        <linearGradient id="k" x1="0%" x2="99.999%" y1="49.997%" y2="49.997%">
            <stop offset="0%" stop-color="#23E4E4"/>
            <stop offset="100%" stop-color="#004DFF"/>
        </linearGradient>
        <path id="m" d="M.309.4v2.001h9.73v7.335h6.12c.176 3.123 2.765 5.612 5.932 5.612a5.955 5.955 0 0 0 5.949-5.949 5.955 5.955 0 0 0-5.949-5.948c-2.703 0-4.986 1.813-5.708 4.284H12.04V.4H.309zm17.833 8.999a3.953 3.953 0 0 1 3.949-3.948 3.953 3.953 0 0 1 3.949 3.948 3.953 3.953 0 0 1-3.949 3.949 3.953 3.953 0 0 1-3.949-3.949z"/>
        <linearGradient id="n" x1="0%" y1="50.002%" y2="50.002%">
            <stop offset="0%" stop-color="#23E4E4"/>
            <stop offset="100%" stop-color="#004DFF"/>
        </linearGradient>
    </defs>
    <g fill="none" fill-rule="evenodd">
        <g transform="translate(0 -.1)">
            <mask id="c" fill="#fff">
                <use xlink:href="#a"/>
            </mask>
            <path fill="url(#b)" d="M37 .1C16.598.1 0 16.698 0 37.1c0 11.803 5.477 23.527 14.594 31.308.191.192.296.326.306.391V87.8c0 3.526 2.565 6.342 6.112 6.696L49.6 97h.5c1.7 0 3.324-.625 4.576-1.763 1.434-1.315 2.224-3.068 2.224-4.938V79.2h7.8c5.183 0 9.4-4.217 9.4-9.4V59.1h2.099c2.791 0 5.315-1.508 6.587-3.936a7.55 7.55 0 0 0-.348-7.609l-8.37-12.754c-.162-.327-.268-.559-.272-.986C72.151 14.594 56.333.1 37 .1zM21.199 92.505c-2.491-.249-4.299-2.228-4.299-4.705V68.799c0-.915-.626-1.539-.951-1.859C7.214 59.481 2 48.325 2 37.1c0-19.299 15.701-35 35-35 18.285 0 33.248 13.707 34.8 31.8 0 .835.279 1.395.505 1.847l8.457 12.9c1.103 1.697 1.196 3.786.252 5.589-.926 1.766-2.771 2.864-4.815 2.864H72.1v12.7c0 4.081-3.319 7.4-7.4 7.4h-9.8v13.099c0 1.302-.56 2.532-1.573 3.461A4.787 4.787 0 0 1 50.1 95l-.413.004-28.488-2.499z" mask="url(#c)"/>
        </g>
        <g transform="translate(21 21.9)">
            <mask id="f" fill="#fff">
                <use xlink:href="#d"/>
            </mask>
            <path fill="url(#e)" d="M10.039.4v7.336H.309v2H12.04V2.4h6.051v-2z" mask="url(#f)"/>
        </g>
        <g transform="translate(39 16.9)">
            <mask id="i" fill="#fff">
                <use xlink:href="#g"/>
            </mask>
            <path fill="url(#h)" d="M.142 6.4a5.955 5.955 0 0 0 5.949 5.949A5.956 5.956 0 0 0 12.04 6.4 5.955 5.955 0 0 0 6.091.451 5.955 5.955 0 0 0 .142 6.4m2 0a3.953 3.953 0 0 1 3.949-3.949A3.953 3.953 0 0 1 10.039 6.4a3.953 3.953 0 0 1-3.948 3.949A3.953 3.953 0 0 1 2.142 6.4" mask="url(#i)"/>
        </g>
        <g transform="translate(16 32.9)">
            <mask id="l" fill="#fff">
                <use xlink:href="#j"/>
            </mask>
            <path fill="url(#k)" d="M24.181 5.736H.309v2h23.989c.609 2.638 2.972 4.613 5.793 4.613a5.956 5.956 0 0 0 5.949-5.95A5.955 5.955 0 0 0 30.091.451c-3.056 0-5.577 2.316-5.91 5.285m1.962.663a3.952 3.952 0 0 1 3.948-3.948 3.952 3.952 0 0 1 3.948 3.948 3.953 3.953 0 0 1-3.948 3.949 3.953 3.953 0 0 1-3.948-3.949" mask="url(#l)"/>
        </g>
        <g transform="translate(21 47.9)">
            <mask id="o" fill="#fff">
                <use xlink:href="#m"/>
            </mask>
            <path fill="url(#n)" d="M.309.4v2.001h9.73v7.335h6.12c.176 3.123 2.765 5.612 5.932 5.612a5.955 5.955 0 0 0 5.949-5.949 5.955 5.955 0 0 0-5.949-5.948c-2.703 0-4.986 1.813-5.708 4.284H12.04V.4H.309zm17.833 8.999a3.953 3.953 0 0 1 3.949-3.948 3.953 3.953 0 0 1 3.949 3.948 3.953 3.953 0 0 1-3.949 3.949 3.953 3.953 0 0 1-3.949-3.949z" mask="url(#o)"/>
        </g>
    </g>
</svg>
