<svg xmlns="http://www.w3.org/2000/svg" xmlns:xlink="http://www.w3.org/1999/xlink" width="100" height="100" viewBox="0 0 100 100">
    <defs>
        <path id="a" d="M10.039.4v7.336H.309v2H12.04V2.4h6.051v-2z"/>
        <linearGradient id="b" x1="0%" x2="99.996%" y1="49.996%" y2="49.996%">
            <stop offset="0%" stop-color="#23E4E4"/>
            <stop offset="100%" stop-color="#004DFF"/>
        </linearGradient>
        <path id="d" d="M.142 6.4a5.955 5.955 0 0 0 5.949 5.949A5.956 5.956 0 0 0 12.04 6.4 5.955 5.955 0 0 0 6.091.451 5.955 5.955 0 0 0 .142 6.4m2 0a3.953 3.953 0 0 1 3.949-3.949A3.953 3.953 0 0 1 10.039 6.4a3.953 3.953 0 0 1-3.948 3.949A3.953 3.953 0 0 1 2.142 6.4"/>
        <linearGradient id="e" x1="-.003%" x2="99.996%" y1="50.001%" y2="50.001%">
            <stop offset="0%" stop-color="#23E4E4"/>
            <stop offset="100%" stop-color="#004DFF"/>
        </linearGradient>
        <path id="g" d="M24.181 5.736H.309v2h23.989c.609 2.638 2.972 4.613 5.793 4.613a5.956 5.956 0 0 0 5.949-5.95A5.955 5.955 0 0 0 30.091.451c-3.056 0-5.577 2.316-5.91 5.285m1.962.663a3.952 3.952 0 0 1 3.948-3.948 3.952 3.952 0 0 1 3.948 3.948 3.953 3.953 0 0 1-3.948 3.949 3.953 3.953 0 0 1-3.948-3.949"/>
        <linearGradient id="h" x1="0%" x2="99.999%" y1="49.997%" y2="49.997%">
            <stop offset="0%" stop-color="#23E4E4"/>
            <stop offset="100%" stop-color="#004DFF"/>
        </linearGradient>
        <path id="j" d="M.309.4v2.001h9.73v7.335h6.12c.176 3.123 2.765 5.612 5.932 5.612a5.955 5.955 0 0 0 5.949-5.949 5.955 5.955 0 0 0-5.949-5.948c-2.703 0-4.986 1.813-5.708 4.284H12.04V.4H.309zm17.833 8.999a3.953 3.953 0 0 1 3.949-3.948 3.953 3.953 0 0 1 3.949 3.948 3.953 3.953 0 0 1-3.949 3.949 3.953 3.953 0 0 1-3.949-3.949z"/>
        <linearGradient id="k" x1="0%" y1="50.002%" y2="50.002%">
            <stop offset="0%" stop-color="#23E4E4"/>
            <stop offset="100%" stop-color="#004DFF"/>
        </linearGradient>
        <linearGradient id="m" x1="0%" y1="50%" y2="50%">
            <stop offset="0%" stop-color="#23E4E4"/>
            <stop offset="100%" stop-color="#004DFF"/>
        </linearGradient>
    </defs>
    <g fill="none" fill-rule="evenodd">
        <g transform="translate(29 22.9)">
            <mask id="c" fill="#fff">
                <use xlink:href="#a"/>
            </mask>
            <path fill="url(#b)" fill-rule="nonzero" d="M10.039.4v7.336H.309v2H12.04V2.4h6.051v-2z" mask="url(#c)"/>
        </g>
        <g transform="translate(47 17.9)">
            <mask id="f" fill="#fff">
                <use xlink:href="#d"/>
            </mask>
            <path fill="url(#e)" fill-rule="nonzero" d="M.142 6.4a5.955 5.955 0 0 0 5.949 5.949A5.956 5.956 0 0 0 12.04 6.4 5.955 5.955 0 0 0 6.091.451 5.955 5.955 0 0 0 .142 6.4m2 0a3.953 3.953 0 0 1 3.949-3.949A3.953 3.953 0 0 1 10.039 6.4a3.953 3.953 0 0 1-3.948 3.949A3.953 3.953 0 0 1 2.142 6.4" mask="url(#f)"/>
        </g>
        <g transform="translate(24 33.9)">
            <mask id="i" fill="#fff">
                <use xlink:href="#g"/>
            </mask>
            <path fill="url(#h)" fill-rule="nonzero" d="M24.181 5.736H.309v2h23.989c.609 2.638 2.972 4.613 5.793 4.613a5.956 5.956 0 0 0 5.949-5.95A5.955 5.955 0 0 0 30.091.451c-3.056 0-5.577 2.316-5.91 5.285m1.962.663a3.952 3.952 0 0 1 3.948-3.948 3.952 3.952 0 0 1 3.948 3.948 3.953 3.953 0 0 1-3.948 3.949 3.953 3.953 0 0 1-3.948-3.949" mask="url(#i)"/>
        </g>
        <g transform="translate(29 48.9)">
            <mask id="l" fill="#fff">
                <use xlink:href="#j"/>
            </mask>
            <path fill="url(#k)" fill-rule="nonzero" d="M.309.4v2.001h9.73v7.335h6.12c.176 3.123 2.765 5.612 5.932 5.612a5.955 5.955 0 0 0 5.949-5.949 5.955 5.955 0 0 0-5.949-5.948c-2.703 0-4.986 1.813-5.708 4.284H12.04V.4H.309zm17.833 8.999a3.953 3.953 0 0 1 3.949-3.948 3.953 3.953 0 0 1 3.949 3.948 3.953 3.953 0 0 1-3.949 3.949 3.953 3.953 0 0 1-3.949-3.949z" mask="url(#l)"/>
        </g>
        <path fill-rule="nonzero" stroke="url(#m)" stroke-width="2" d="M24 70.902V91.1a1 1 0 0 0 .895.994l36.067 3.797a1 1 0 0 0 1.103-.932l.884-14.139a1 1 0 0 1 .866-.929l13.882-1.85a2 2 0 0 0 .757-.263c.554-.33.94-.803 1.157-1.421.272-.775.401-1.894.389-3.357V60a1 1 0 0 1 1-1h4.063a2 2 0 0 0 1.537-.72l3.484-4.18a2 2 0 0 0 .17-2.323L80.02 35.014C78.698 21.551 74.025 12.546 66 8 53.962 1.181 31.73.27 20 12 8.27 23.73 7.654 35.902 10 46.005c1.479 6.37 5.733 13.571 12.763 21.604A5 5 0 0 1 24 70.902z"/>
    </g>
</svg>
