<svg width="28" height="27" viewBox="0 0 28 27" fill="none" xmlns="http://www.w3.org/2000/svg">
<path d="M11 25.5C11 26.05 11.45 26.5 12 26.5H16C16.55 26.5 17 26.05 17 25.5V24.5H11V25.5ZM14 6.5C10.14 6.5 7 9.64 7 13.5C7 15.88 8.19 17.97 10 19.24V21.5C10 22.05 10.45 22.5 11 22.5H17C17.55 22.5 18 22.05 18 21.5V19.24C19.81 17.97 21 15.88 21 13.5C21 9.64 17.86 6.5 14 6.5ZM16.85 17.6L16 18.2V20.5H12V18.2L11.15 17.6C10.4875 17.1407 9.94594 16.5279 9.57155 15.814C9.19717 15.1001 9.00107 14.3061 9 13.5C9 10.74 11.24 8.5 14 8.5C16.76 8.5 19 10.74 19 13.5C19 15.13 18.2 16.66 16.85 17.6Z" fill="#FBFBFB"/>
<path d="M13.1986 3.23657V0.0200195H14.8014V3.23657C14.5368 3.21723 14.2695 3.20739 14 3.20739C13.7305 3.20739 13.4632 3.21723 13.1986 3.23657Z" fill="#FBFBFB"/>
<path d="M7.13341 5.66053C6.71954 5.99997 6.33126 6.36946 5.97191 6.76566L3.78805 4.5818L4.92137 3.44849L7.13341 5.66053Z" fill="#FBFBFB"/>
<path d="M20.8666 5.66055C21.2805 5.99999 21.6688 6.36948 22.0281 6.76568L24.212 4.58184L23.0787 3.44853L20.8666 5.66055Z" fill="#FBFBFB"/>
<path d="M24.7714 12.8591C24.8136 13.2478 24.8353 13.6427 24.8353 14.0427C24.8353 14.183 24.8326 14.3228 24.8274 14.4618H27.6405V12.8591H24.7714Z" fill="#FBFBFB"/>
<path d="M3.17266 14.4618C3.16738 14.3228 3.16471 14.183 3.16471 14.0427C3.16471 13.6427 3.18638 13.2478 3.22861 12.8591H0.359497V14.4618H3.17266Z" fill="#FBFBFB"/>
</svg>
