<svg width="21" height="21" viewBox="0 0 21 21" fill="none" xmlns="http://www.w3.org/2000/svg">
<path d="M10.9453 18.5C13.067 18.5 15.1019 17.6571 16.6022 16.1569C18.1025 14.6566 18.9453 12.6217 18.9453 10.5C18.9453 8.37827 18.1025 6.34344 16.6022 4.84315C15.1019 3.34285 13.067 2.5 10.9453 2.5C8.82358 2.5 6.78875 3.34285 5.28846 4.84315C3.78817 6.34344 2.94531 8.37827 2.94531 10.5C2.94531 12.6217 3.78817 14.6566 5.28846 16.1569C6.78875 17.6571 8.82358 18.5 10.9453 18.5ZM10.9453 20.5C5.42231 20.5 0.945312 16.023 0.945312 10.5C0.945312 4.977 5.42231 0.5 10.9453 0.5C16.4683 0.5 20.9453 4.977 20.9453 10.5C20.9453 16.023 16.4683 20.5 10.9453 20.5ZM9.94531 14.5H11.9453V16.5H9.94531V14.5ZM9.94531 4.5H11.9453V12.5H9.94531V4.5Z" fill="#2C2C2C"/>
</svg>