<svg width="25" height="25" viewBox="0 0 25 25" fill="none" xmlns="http://www.w3.org/2000/svg">
<path fill-rule="evenodd" clip-rule="evenodd" d="M7.12274 5.77842C6.75152 5.40719 6.14965 5.40719 5.77842 5.77842C5.4072 6.14964 5.4072 6.75151 5.77842 7.12273L11.1557 12.5L5.77842 17.8773C5.40719 18.2485 5.40719 18.8504 5.77842 19.2216C6.14964 19.5928 6.75151 19.5928 7.12273 19.2216L12.5 13.8443L17.8773 19.2216C18.2485 19.5928 18.8504 19.5928 19.2216 19.2216C19.5928 18.8503 19.5928 18.2485 19.2216 17.8772L13.8443 12.5L19.2216 7.12276C19.5928 6.75154 19.5928 6.14967 19.2216 5.77845C18.8503 5.40723 18.2485 5.40722 17.8773 5.77845L12.5 11.1557L7.12274 5.77842Z" fill="#2C2C2C"/>
</svg>