<svg xmlns="http://www.w3.org/2000/svg" xmlns:xlink="http://www.w3.org/1999/xlink" width="21" height="16" viewBox="0 0 21 16">
    <defs>
        <path id="a" d="M0 0h20.616v15.574H0z"/>
    </defs>
    <g fill="none" fill-rule="evenodd">
        <mask id="b" fill="#fff">
            <use xlink:href="#a"/>
        </mask>
        <path fill="#008CFF" d="M18.903.001a1.652 1.652 0 0 0-1.132.5C13.736 4.517 10.68 7.851 6.885 11.69l-4.17-3.504a1.655 1.655 0 0 0-2.322.185A1.63 1.63 0 0 0 .58 10.68l5.353 4.501a1.655 1.655 0 0 0 2.239-.09c4.426-4.407 7.583-7.935 11.94-12.276A1.63 1.63 0 0 0 20.155.5 1.654 1.654 0 0 0 18.904 0" mask="url(#b)"/>
    </g>
</svg>
