<svg xmlns="http://www.w3.org/2000/svg" xmlns:xlink="http://www.w3.org/1999/xlink" width="92" height="92" viewBox="0 0 92 92">
    <defs>
        <path id="a" d="M26.177 0c-3.783 0-6.861 3.078-6.861 6.86 0 3.474 2.595 6.344 5.948 6.794l2.08 21.379c-3.264.526-5.768 3.355-5.768 6.765a6.845 6.845 0 0 0 2.634 5.393L10.564 64.763a6.81 6.81 0 0 0-3.702-1.094A6.87 6.87 0 0 0 0 70.53a6.87 6.87 0 0 0 6.862 6.862c3.362 0 6.161-2.434 6.744-5.63l31.801 7.359.451-1.95-32.187-7.448a6.835 6.835 0 0 0-1.597-3.643l13.892-17.889a6.811 6.811 0 0 0 2.471.468c2.714 0 5.057-1.588 6.17-3.879l21.325 9.133a6.876 6.876 0 0 0 5.402 6.037l-5.459 13.432a6.82 6.82 0 0 0-2.798-.603 6.87 6.87 0 0 0-6.862 6.862c0 3.782 3.078 6.861 6.862 6.861 2.807 0 5.221-1.696 6.283-4.116l19.153 3.672c.778 2.936 3.449 5.109 6.626 5.109A6.869 6.869 0 0 0 92 84.305a6.868 6.868 0 0 0-6.861-6.86 6.811 6.811 0 0 0-2.927.665L67.973 57.688a6.826 6.826 0 0 0 1.647-4.449c0-2.58-1.432-4.83-3.543-6.001l5.389-20.627c3.415-.392 6.077-3.296 6.077-6.813a6.87 6.87 0 0 0-6.861-6.862c-3.198 0-5.885 2.204-6.642 5.17L33.03 7.033c.001-.057.009-.114.009-.173 0-3.782-3.079-6.86-6.862-6.86zm-4.861 6.86c0-2.679 2.18-4.86 4.861-4.86a4.866 4.866 0 0 1 4.861 4.86 4.867 4.867 0 0 1-4.861 4.862 4.867 4.867 0 0 1-4.861-4.862zm13.891 36.002a6.9 6.9 0 0 0 .091-1.064c0-3.472-2.596-6.343-5.947-6.792L27.27 13.627a6.874 6.874 0 0 0 5.411-4.595l31.158 11.125a6.865 6.865 0 0 0 5.58 6.381l-5.224 19.994a6.857 6.857 0 0 0-1.435-.154c-3.287 0-6.037 2.323-6.704 5.413l-20.849-8.929zm30.614-23.064a4.867 4.867 0 0 1 4.861-4.862 4.867 4.867 0 0 1 4.861 4.862c0 2.68-2.18 4.861-4.861 4.861a4.866 4.866 0 0 1-4.861-4.861zm-42.245 22c0-2.68 2.18-4.861 4.861-4.861a4.866 4.866 0 0 1 4.861 4.861 4.866 4.866 0 0 1-4.861 4.861 4.866 4.866 0 0 1-4.861-4.861zm34.322 11.441a4.867 4.867 0 0 1 4.862-4.861 4.867 4.867 0 0 1 4.861 4.861 4.867 4.867 0 0 1-4.861 4.862 4.867 4.867 0 0 1-4.862-4.862zm1.987 27.21a6.74 6.74 0 0 0 .052-.808c0-2.057-.913-3.9-2.351-5.158l5.86-14.417a6.811 6.811 0 0 0 3.011-1.056l14.091 20.21a6.84 6.84 0 0 0-2.253 4.759l-18.41-3.53zM2 70.53c0-2.68 2.18-4.861 4.862-4.861a4.867 4.867 0 0 1 4.861 4.861 4.867 4.867 0 0 1-4.861 4.862A4.867 4.867 0 0 1 2 70.53zm46.215 9.111a4.867 4.867 0 0 1 4.862-4.862 4.867 4.867 0 0 1 4.861 4.862 4.867 4.867 0 0 1-4.861 4.861 4.867 4.867 0 0 1-4.862-4.861zm32.063 4.664a4.867 4.867 0 0 1 4.861-4.861A4.867 4.867 0 0 1 90 84.305a4.867 4.867 0 0 1-4.861 4.862 4.867 4.867 0 0 1-4.861-4.862z"/>
        <linearGradient id="b" x1="0%" y1="50%" y2="50%">
            <stop offset="0%" stop-color="#23E4E4"/>
            <stop offset="100%" stop-color="#004DFF"/>
        </linearGradient>
    </defs>
    <g fill="none" fill-rule="evenodd">
        <mask id="c" fill="#fff">
            <use xlink:href="#a"/>
        </mask>
        <path fill="url(#b)" d="M26.177 0c-3.783 0-6.861 3.078-6.861 6.86 0 3.474 2.595 6.344 5.948 6.794l2.08 21.379c-3.264.526-5.768 3.355-5.768 6.765a6.845 6.845 0 0 0 2.634 5.393L10.564 64.763a6.81 6.81 0 0 0-3.702-1.094A6.87 6.87 0 0 0 0 70.53a6.87 6.87 0 0 0 6.862 6.862c3.362 0 6.161-2.434 6.744-5.63l31.801 7.359.451-1.95-32.187-7.448a6.835 6.835 0 0 0-1.597-3.643l13.892-17.889a6.811 6.811 0 0 0 2.471.468c2.714 0 5.057-1.588 6.17-3.879l21.325 9.133a6.876 6.876 0 0 0 5.402 6.037l-5.459 13.432a6.82 6.82 0 0 0-2.798-.603 6.87 6.87 0 0 0-6.862 6.862c0 3.782 3.078 6.861 6.862 6.861 2.807 0 5.221-1.696 6.283-4.116l19.153 3.672c.778 2.936 3.449 5.109 6.626 5.109A6.869 6.869 0 0 0 92 84.305a6.868 6.868 0 0 0-6.861-6.86 6.811 6.811 0 0 0-2.927.665L67.973 57.688a6.826 6.826 0 0 0 1.647-4.449c0-2.58-1.432-4.83-3.543-6.001l5.389-20.627c3.415-.392 6.077-3.296 6.077-6.813a6.87 6.87 0 0 0-6.861-6.862c-3.198 0-5.885 2.204-6.642 5.17L33.03 7.033c.001-.057.009-.114.009-.173 0-3.782-3.079-6.86-6.862-6.86zm-4.861 6.86c0-2.679 2.18-4.86 4.861-4.86a4.866 4.866 0 0 1 4.861 4.86 4.867 4.867 0 0 1-4.861 4.862 4.867 4.867 0 0 1-4.861-4.862zm13.891 36.002a6.9 6.9 0 0 0 .091-1.064c0-3.472-2.596-6.343-5.947-6.792L27.27 13.627a6.874 6.874 0 0 0 5.411-4.595l31.158 11.125a6.865 6.865 0 0 0 5.58 6.381l-5.224 19.994a6.857 6.857 0 0 0-1.435-.154c-3.287 0-6.037 2.323-6.704 5.413l-20.849-8.929zm30.614-23.064a4.867 4.867 0 0 1 4.861-4.862 4.867 4.867 0 0 1 4.861 4.862c0 2.68-2.18 4.861-4.861 4.861a4.866 4.866 0 0 1-4.861-4.861zm-42.245 22c0-2.68 2.18-4.861 4.861-4.861a4.866 4.866 0 0 1 4.861 4.861 4.866 4.866 0 0 1-4.861 4.861 4.866 4.866 0 0 1-4.861-4.861zm34.322 11.441a4.867 4.867 0 0 1 4.862-4.861 4.867 4.867 0 0 1 4.861 4.861 4.867 4.867 0 0 1-4.861 4.862 4.867 4.867 0 0 1-4.862-4.862zm1.987 27.21a6.74 6.74 0 0 0 .052-.808c0-2.057-.913-3.9-2.351-5.158l5.86-14.417a6.811 6.811 0 0 0 3.011-1.056l14.091 20.21a6.84 6.84 0 0 0-2.253 4.759l-18.41-3.53zM2 70.53c0-2.68 2.18-4.861 4.862-4.861a4.867 4.867 0 0 1 4.861 4.861 4.867 4.867 0 0 1-4.861 4.862A4.867 4.867 0 0 1 2 70.53zm46.215 9.111a4.867 4.867 0 0 1 4.862-4.862 4.867 4.867 0 0 1 4.861 4.862 4.867 4.867 0 0 1-4.861 4.861 4.867 4.867 0 0 1-4.862-4.861zm32.063 4.664a4.867 4.867 0 0 1 4.861-4.861A4.867 4.867 0 0 1 90 84.305a4.867 4.867 0 0 1-4.861 4.862 4.867 4.867 0 0 1-4.861-4.862z" mask="url(#c)"/>
    </g>
</svg>
